<mxfile host="Electron" modified="2024-03-19T20:25:13.007Z" agent="Mozilla/5.0 (X11; Linux x86_64) AppleWebKit/537.36 (KHTML, like Gecko) draw.io/23.1.5 Chrome/120.0.6099.109 Electron/28.1.0 Safari/537.36" etag="Dz3xcb9rogyLVWCRzSkG" version="23.1.5" type="device">
  <diagram name="PÃ¡gina-1" id="pOkgu7gdgmRIMwSRWIvD">
    <mxGraphModel dx="1111" dy="668" grid="1" gridSize="10" guides="1" tooltips="1" connect="1" arrows="1" fold="1" page="1" pageScale="1" pageWidth="827" pageHeight="1169" math="0" shadow="0">
      <root>
        <mxCell id="0" />
        <mxCell id="1" parent="0" />
        <mxCell id="nZxzC5y5UGG8NB3IwJ_7-5" value="" style="rounded=0;whiteSpace=wrap;html=1;" parent="1" vertex="1">
          <mxGeometry x="154" y="78" width="800" height="600" as="geometry" />
        </mxCell>
        <mxCell id="nZxzC5y5UGG8NB3IwJ_7-6" value="" style="rounded=0;whiteSpace=wrap;html=1;" parent="1" vertex="1">
          <mxGeometry x="770" y="110" width="160" height="30" as="geometry" />
        </mxCell>
        <mxCell id="nZxzC5y5UGG8NB3IwJ_7-2" value="&lt;font style=&quot;font-size: 16px;&quot;&gt;Cargar archivo&lt;/font&gt;" style="text;html=1;align=center;verticalAlign=middle;whiteSpace=wrap;rounded=0;" parent="1" vertex="1">
          <mxGeometry x="780" y="110" width="140" height="30" as="geometry" />
        </mxCell>
        <mxCell id="nZxzC5y5UGG8NB3IwJ_7-9" value="&lt;font style=&quot;font-size: 16px;&quot;&gt;Titulo del programa del proyecto de ADA 2024-1&lt;/font&gt;" style="text;html=1;align=center;verticalAlign=middle;whiteSpace=wrap;rounded=0;" parent="1" vertex="1">
          <mxGeometry x="180" y="110" width="360" height="30" as="geometry" />
        </mxCell>
        <mxCell id="dhmBD5__mFO9ssw_5Kf4-1" value="" style="rounded=0;whiteSpace=wrap;html=1;" vertex="1" parent="1">
          <mxGeometry x="180" y="220" width="370" height="420" as="geometry" />
        </mxCell>
        <mxCell id="dhmBD5__mFO9ssw_5Kf4-2" value="" style="rounded=0;whiteSpace=wrap;html=1;" vertex="1" parent="1">
          <mxGeometry x="560" y="220" width="370" height="420" as="geometry" />
        </mxCell>
        <mxCell id="dhmBD5__mFO9ssw_5Kf4-4" value="&amp;nbsp;Algoritmo" style="rounded=0;whiteSpace=wrap;html=1;align=left;" vertex="1" parent="1">
          <mxGeometry x="290" y="170" width="100" height="20" as="geometry" />
        </mxCell>
        <mxCell id="dhmBD5__mFO9ssw_5Kf4-5" value="" style="rounded=0;whiteSpace=wrap;html=1;" vertex="1" parent="1">
          <mxGeometry x="370" y="170" width="20" height="20" as="geometry" />
        </mxCell>
        <mxCell id="dhmBD5__mFO9ssw_5Kf4-6" value="" style="triangle;whiteSpace=wrap;html=1;rotation=90;" vertex="1" parent="1">
          <mxGeometry x="375" y="175" width="10" height="10" as="geometry" />
        </mxCell>
      </root>
    </mxGraphModel>
  </diagram>
</mxfile>
